Coordinates
version=1
nRows=8
nColumns=36
inDegrees=yes

Units are S.I. units (second, meters, Newtons, ...)
If the header above contains a line with 'inDegrees', this indicates whether rotational values are in degrees (yes) or radians (no).

endheader
time	pelvis_tilt	pelvis_list	pelvis_rotation	pelvis_tx	pelvis_ty	pelvis_tz	hip_flexion_r	hip_adduction_r	hip_rotation_r	knee_angle_r	knee_angle_r_beta	ankle_angle_r	subtalar_angle_r	mtp_angle_r	hip_flexion_l	hip_adduction_l	hip_rotation_l	knee_angle_l	knee_angle_l_beta	ankle_angle_l	subtalar_angle_l	mtp_angle_l	lumbar_extension	lumbar_bending	lumbar_rotation	arm_flex_r	arm_add_r	arm_rot_r	elbow_flex_r	pro_sup_r	arm_flex_l	arm_add_l	arm_rot_l	elbow_flex_l	pro_sup_l
      0.00000000	     -5.39207545	     -2.75926642	      4.11331919	     -0.97192415	      1.25029316	     -0.09101011	      9.93114134	      0.63862879	      1.99970727	     12.75401950	      0.22259963	     -2.85807707	    -22.26985668	     -6.05605716	      9.39488766	     -3.89862232	      6.18136098	     11.72629852	      0.20466252	     10.07095999	     -4.06002989	     -6.05605716	    -10.16552681	      4.38324980	      0.82204397	     13.51955622	     -4.68785866	     31.11208280	     24.87130468	     73.64262866	      9.92023669	     -1.00139816	     34.11381302	     19.58242875	     60.60228357
      0.00416670	     -6.89122147	     -2.44380040	      3.62126529	     -0.97259684	      1.24559646	     -0.09039035	     12.49807815	      0.48568298	      2.48790865	     14.50996737	      0.25324670	     -0.56769822	    -23.50534945	     -6.34303331	     11.09784059	     -2.87592363	      9.77730405	     11.95559396	      0.20866448	      9.61096561	     -6.32609611	     -6.34303331	     -8.91187494	      3.93505594	      1.58501638	     14.32944101	     -5.12143481	     35.25950767	     24.40513855	     75.19455306	      9.82943112	     -1.07579838	     36.41350902	     20.25611536	     62.12109990
      0.00833330	     -6.80559188	     -1.84174668	      3.13436696	     -0.97232772	      1.25583165	     -0.09043856	     11.84990594	     -0.06932912	      1.73427985	     13.23501596	      0.23099460	     -0.93823041	    -22.78039618	     -6.38321008	     10.29042585	     -2.19361613	     11.32264511	     10.73969621	      0.18744306	      8.73352118	     -7.40282568	     -6.38321008	     -9.52887173	      3.00943751	      2.01972611	     14.89396521	     -5.50570443	     38.61538336	     24.18318993	     77.09057479	     10.55578376	     -1.85302894	     39.81183776	     20.77368394	     64.13499424
      0.01250000	     -6.46811271	     -1.55247209	      2.81301355	     -0.97277892	      1.24656650	     -0.08921238	     11.60642705	     -0.30299714	      2.31148056	     13.24782740	      0.23121821	     -0.59579536	    -23.18833211	     -6.40566055	      9.57186435	     -1.90450195	     12.31704820	     10.10539416	      0.17637240	      8.23026361	     -8.85439934	     -6.40566055	    -10.18571107	      2.59871107	      2.40961469	     15.02089580	     -5.48617194	     39.46818301	     24.06488475	     78.01628408	     11.04670337	     -2.38718398	     41.23393104	     21.36124933	     65.05711054
      0.01666670	     -6.08770508	     -1.44417602	      2.66656154	     -0.97266047	      1.25378658	     -0.08943567	     10.95031177	     -0.44012523	      2.12114906	     12.82198200	      0.22378580	     -1.28821923	    -23.48913197	     -6.53598353	      8.81695435	     -1.74983584	     13.18876363	      9.45776232	      0.16506909	      7.53317064	     -9.97491242	     -6.53598353	    -10.79774738	      2.51127668	      2.57755327	     15.22898046	     -5.61822752	     40.75411792	     23.89685279	     81.25620970	     11.95768413	     -2.37805128	     45.37933338	     20.31102015	     68.42484909
      0.02083330	     -5.70385061	     -1.33099292	      2.56308109	     -0.97275316	      1.25108877	     -0.08911417	     10.75407566	     -0.45236864	      2.52285444	     13.09151575	      0.22849005	     -1.59376921	    -23.98657623	     -6.64160470	      8.29096459	     -1.65957168	     13.72632224	      9.22232223	      0.16095989	      7.08741088	    -11.38968192	     -6.64160470	    -11.41710418	      2.36378819	      2.73416946	     15.11544190	     -5.38178067	     38.60485275	     24.04793941	     84.92842375	     12.17385824	     -2.35906747	     44.84962461	     20.23779364	     71.57412194
      0.02500000	     -5.24646550	     -1.28111792	      2.49416562	     -0.97297123	      1.25424170	     -0.08937280	     10.16585112	     -0.43606858	      2.87192860	     12.81519348	      0.22366732	     -2.32581812	    -24.83493038	     -6.74253911	      7.62807750	     -1.63508334	     14.19546075	      8.86324347	      0.15469278	      6.63671242	    -12.60270200	     -6.74253911	    -12.13540574	      2.32334032	      2.81017022	     15.01218812	     -5.33387069	     37.54721771	     24.07560578	     85.29784948	     12.29727902	     -2.29111329	     43.95782105	     20.45754475	     72.28256621
      0.02916670	     -4.82847780	     -1.26601711	      2.48191319	     -0.97304569	      1.25528202	     -0.08920561	      9.59593374	     -0.39685821	      3.04284438	     12.53000259	      0.21868980	     -2.81533453	    -24.99961035	     -7.03931670	      7.05879507	     -1.66673283	     14.31678086	      8.68211134	      0.15153143	      6.34662088	    -13.48540621	     -7.03931670	    -12.77952236	      2.27424780	      2.97357094	     14.72713042	     -4.96167907	     33.05464664	     24.38968671	     93.26643508	     12.03234256	     -2.07952767	     40.05777320	     20.50167821	     79.97313527
